<svg id="logo-c" version="1.2" xmlns="http://www.w3.org/2000/svg" width="300" height="273"><path d="M143 6.932c-4.7.442-5.131.682-4.419 2.461.891 2.225 1.248 3.155 2.919 7.607.877 2.337 1.777 4.7 1.999 5.25.222.55.897 2.35 1.501 4 .604 1.65 1.279 3.45 1.5 4 .221.55.896 2.35 1.5 4s1.331 3.563 1.616 4.25c.737 1.779 1.197 3 1.884 5 .331.962.833 2.313 1.117 3a77.13 77.13 0 0 1 1.883 5c.687 2 1.147 3.221 1.884 5 .285.688 1.012 2.6 1.616 4.25.604 1.65 1.279 3.45 1.5 4 .221.55.896 2.35 1.5 4s1.279 3.45 1.5 4c.221.55.896 2.35 1.5 4s1.279 3.45 1.5 4c.221.55.896 2.35 1.5 4s1.279 3.45 1.5 4c.221.55.896 2.35 1.5 4s1.279 3.45 1.5 4c.221.55.896 2.35 1.5 4s1.301 3.506 1.549 4.125l1.901 4.75c.247.619.719 1.912 1.05 2.875.331.963.803 2.256 1.05 2.875l.9 2.25c.247.619.719 1.912 1.05 2.875a77.13 77.13 0 0 0 1.883 5c.284.688.786 2.037 1.117 3a77.13 77.13 0 0 0 1.883 5c.284.688.786 2.037 1.117 3 .687 2 1.147 3.221 1.884 5 .285.688 1.012 2.6 1.616 4.25 1.285 3.514 1.683 4.556 2.383 6.25.284.688.786 2.037 1.117 3 .795 2.315 1.522 4.206 2.883 7.5.284.688.786 2.037 1.117 3 .331.963.833 2.313 1.117 3a77.13 77.13 0 0 1 1.883 5c.331.963.803 2.256 1.05 2.875l.9 2.25c.247.619.719 1.912 1.05 2.875 1.015 2.955 2.244 6.018 3.058 7.618.243.478.442 1.212.442 1.632 0 .42.199 1.154.442 1.632.243.477.693 1.487 1 2.243.307.756.768 1.881 1.025 2.5.257.619.752 1.969 1.1 3 .64 1.894 1.433 2.513 1.433 1.118 0-.416.207-1.147.46-1.625.253-.477.95-2.218 1.549-3.868s1.27-3.45 1.491-4c.221-.55.896-2.35 1.5-4s1.301-3.506 1.549-4.125l.901-2.25c.247-.619.719-1.912 1.05-2.875.331-.963.803-2.256 1.05-2.875l.9-2.25c.247-.619.719-1.912 1.05-2.875.331-.963.803-2.256 1.05-2.875l.901-2.25c.248-.619.945-2.475 1.549-4.125s1.279-3.45 1.501-4c.222-.55 1.122-2.912 1.999-5.25s1.777-4.7 1.999-5.25c.222-.55.897-2.35 1.501-4 .604-1.65 1.279-3.45 1.5-4 .221-.55.896-2.35 1.5-4s1.279-3.45 1.5-4c.221-.55.896-2.35 1.5-4s1.301-3.506 1.549-4.125l.901-2.25c.247-.619.719-1.912 1.05-2.875a77.13 77.13 0 0 1 1.883-5c.284-.687.786-2.037 1.117-3 .331-.963.833-2.312 1.117-3 .7-1.694 1.098-2.736 2.383-6.25.604-1.65 1.279-3.45 1.501-4 .222-.55 1.122-2.912 1.999-5.25s1.777-4.7 1.999-5.25c.222-.55.897-2.35 1.501-4 .604-1.65 1.279-3.45 1.5-4 .221-.55.896-2.35 1.5-4s1.278-3.45 1.498-4c1.739-4.339 1.802-3.848-1.04-8.083-4.224-6.292-8.192-10.966-15.427-18.169-7.032-7.001-17.109-15.026-23.156-18.439a793.87 793.87 0 0 1-3.75-2.136c-12.953-7.442-27.588-12.587-42.59-14.971-6.833-1.086-25.586-1.674-32.535-1.02M79.74 31.113c-7.045 5.277-7.894 6.016-14.502 12.625C55.978 52.999 51.684 58.414 45.997 68c-9.275 15.635-14.439 30.025-17.315 48.25-1.07 6.777-1.23 27.768-.26 34 .927 5.955 2.546 14.279 3.136 16.125.534 1.67 1.442 2.216 1.442.868 0-.416.207-1.147.46-1.625.253-.477.95-2.218 1.549-3.868s1.322-3.562 1.607-4.25c.66-1.593.943-2.328 2.884-7.5.877-2.338 1.777-4.7 1.999-5.25.222-.55.897-2.35 1.501-4 .604-1.65 1.331-3.562 1.616-4.25.66-1.593.943-2.328 2.884-7.5.877-2.338 1.829-4.812 2.115-5.5.693-1.669 1.085-2.697 2.385-6.25.604-1.65 1.301-3.506 1.549-4.125l.902-2.25c.248-.619.945-2.475 1.549-4.125s1.301-3.506 1.549-4.125l.903-2.25c.249-.619 1.171-3.037 2.048-5.375s1.777-4.7 1.999-5.25c.222-.55.897-2.35 1.501-4 1.3-3.553 1.692-4.581 2.385-6.25.286-.687 1.238-3.162 2.115-5.5.877-2.338 1.777-4.7 1.999-5.25.222-.55.897-2.35 1.501-4 .604-1.65 1.331-3.562 1.616-4.25.66-1.593.943-2.328 2.884-7.5a418.477 418.477 0 0 1 2.048-5.375l.903-2.25c.248-.619.945-2.475 1.549-4.125s1.301-3.506 1.549-4.125C86.133 28.19 86.493 27 85.615 27c-.211 0-2.855 1.851-5.875 4.113m34.77 11.012c-.336.894-.791 2.075-1.01 2.625-.219.55-.669 1.788-1 2.75-.331.962-.781 2.2-1.002 2.75-.22.55-.894 2.35-1.498 4s-1.28 3.45-1.502 4a137.744 137.744 0 0 0-2.82 7.75c-.401 1.237-.972 2.813-1.27 3.5-.695 1.604-1.161 2.826-1.908 5-.331.963-.781 2.2-1.002 2.75-.22.55-.872 2.294-1.449 3.875l-2.098 5.75a205.167 205.167 0 0 1-1.449 3.875c-.221.55-.671 1.787-1.002 2.75-.331.963-.781 2.2-1.002 2.75-.22.55-.894 2.35-1.498 4s-1.278 3.45-1.498 4c-.221.55-.671 1.787-1.002 2.75-.331.963-.781 2.2-1 2.75-.219.55-.669 1.787-1 2.75a77.13 77.13 0 0 1-1.883 5 65.542 65.542 0 0 0-1.117 3c-.331.963-.781 2.2-1.002 2.75-.22.55-.872 2.294-1.449 3.875l-2.098 5.75a205.167 205.167 0 0 1-1.449 3.875c-.221.55-.671 1.787-1.002 2.75-.331.963-.781 2.2-1.002 2.75-.22.55-.894 2.35-1.498 4s-1.278 3.45-1.498 4c-.221.55-.671 1.787-1.002 2.75-.331.963-.781 2.2-1 2.75-.219.55-.669 1.787-1 2.75-.331.963-.781 2.2-1.002 2.75-.22.55-.89 2.35-1.489 4-.599 1.65-1.296 3.391-1.549 3.868-.253.478-.46 1.096-.46 1.375 0 .339 16.067.507 48.5.507 26.675 0 48.5-.116 48.5-.257 0-.141-.207-.647-.46-1.125-.253-.477-.928-2.162-1.5-3.743-2.041-5.642-3.143-8.64-3.54-9.625-.221-.55-.896-2.35-1.5-4s-1.278-3.45-1.498-4a74.188 74.188 0 0 1-1.002-2.75c-.331-.963-.781-2.2-1.002-2.75-.22-.55-.872-2.294-1.449-3.875l-2.098-5.75a194.817 194.817 0 0 0-1.451-3.875c-.221-.55-.896-2.35-1.5-4s-1.278-3.45-1.498-4a74.188 74.188 0 0 1-1.002-2.75 65.542 65.542 0 0 0-1.117-3c-1.177-2.849-1.364-3.348-2.061-5.5a137.744 137.744 0 0 0-2.82-7.75c-.222-.55-.898-2.35-1.502-4s-1.278-3.45-1.498-4a74.188 74.188 0 0 1-1.002-2.75 65.542 65.542 0 0 0-1.117-3 77.13 77.13 0 0 1-1.883-5c-.331-.963-.781-2.2-1-2.75a78.598 78.598 0 0 1-1-2.75c-.331-.963-.781-2.2-1.002-2.75-.22-.55-.894-2.35-1.498-4s-1.278-3.45-1.498-4a74.188 74.188 0 0 1-1.002-2.75 65.988 65.988 0 0 0-1.117-3 77.13 77.13 0 0 1-1.883-5c-.331-.962-.781-2.2-1-2.75a79.358 79.358 0 0 1-1-2.75 82.43 82.43 0 0 0-.997-2.75C116.52 43.241 116 41.772 116 41.183c0-1.254-.871-.703-1.49.942m165.07 69c-2.213 5.417-2.365 5.804-3.58 9.125-.604 1.65-1.331 3.563-1.616 4.25-.695 1.678-1.09 2.712-2.384 6.25-1.294 3.538-1.689 4.572-2.384 6.25-.285.688-1.012 2.6-1.616 4.25-.604 1.65-1.331 3.563-1.616 4.25-.695 1.678-1.09 2.712-2.384 6.25a214.244 214.244 0 0 1-1.549 4.125l-.902 2.25c-.248.619-.945 2.475-1.549 4.125s-1.331 3.563-1.616 4.25c-.695 1.678-1.09 2.712-2.384 6.25-1.294 3.538-1.689 4.572-2.384 6.25-.285.688-1.012 2.6-1.616 4.25-1.294 3.538-1.689 4.572-2.384 6.25-.285.688-1.012 2.6-1.616 4.25a214.244 214.244 0 0 1-1.549 4.125l-.902 2.25c-.248.619-.945 2.475-1.549 4.125s-1.331 3.563-1.616 4.25c-.695 1.678-1.09 2.712-2.384 6.25a214.244 214.244 0 0 1-1.549 4.125l-.902 2.25c-.248.619-.945 2.475-1.549 4.125s-1.331 3.563-1.616 4.25c-.285.688-.685 1.7-.889 2.25-.204.55-.632 1.648-.951 2.44-.852 2.11-.306 2.186 2.081.288 14.123-11.226 27.262-27.477 35.006-43.297 3.059-6.249 7.256-16.88 8.362-21.181.248-.963.69-2.65.982-3.75 3.627-13.626 4.928-31.838 3.27-45.75-1.164-9.764-1.354-11-1.688-11-.172 0-.612.731-.977 1.625M55.62 201.993c-.341.546-.62 1.401-.62 1.9 0 .499-.186 1.121-.413 1.382-.768.883-1.702 4.575-1.399 5.528.166.521.81 1.511 1.431 2.201.622.69 2.023 2.378 3.114 3.75 3.186 4.011 13.213 13.815 18.287 17.883 1.889 1.514 9.337 6.538 14.48 9.769 9.301 5.841 26.194 12.354 38.282 14.76 12.035 2.394 18.723 3.006 29.684 2.712 11.494-.307 21.547-1.851 32.159-4.938 3.683-1.072 4.054-1.704 2.813-4.791-.309-.77-.745-1.849-.967-2.399-.223-.55-.691-1.9-1.04-3-.349-1.1-.814-2.214-1.033-2.475-.219-.261-.398-.955-.398-1.542 0-.586-.147-1.214-.327-1.393-.295-.295-1.933-4.769-3.969-10.84-.415-1.238-.959-2.7-1.208-3.25-.25-.55-1.012-2.687-1.695-4.75-1.675-5.061-3.774-11.027-4.311-12.25-.241-.55-.945-2.575-1.564-4.5-.619-1.925-1.333-3.781-1.587-4.125-.365-.494-12.905-.625-59.78-.625-58.642 0-59.326.011-59.939.993" fill-rule="evenodd"/></svg>